# xmcd
#
# Track frame offsets:
#	150
#	15525
#	28277
#	41330
#	58355
#	75375
#	89257
#	102012
#	119180
#	133505
#	150675
#	173327
#	186842
#	203282
#	219025
#	233717
#	251492
#	273842
#
# Disc length: 3849
#
# Revision: 2
# Processed by: cddbd v1.5.1PL0 Copyright (c) Steve Scherf et al.
# Submitted via: audiograbber 1.81.00
# Normalized: r1:DSETVAR1
#
DISCID=e00f0712
DTITLE=Various Artist - CDX VOLUME 43 OCTOBER 1992
DYEAR=1992
DGENRE=Country
TTITLE0=JEFF CHANCE - A HEARTACHE ON HER HANDS
TTITLE1=GUY CLARK - BATON ROUGE
TTITLE2=DAWNETT - BEFORE THE RIVER RUNS DRY
TTITLE3=GIBSON/MILLER BAND - BIG HEART
TTITLE4=MICHELLE WRIGHT - HE WOULD BE SIXTEEN
TTITLE5=MATTHEWS, WRIGHT and KING - HOUSE HUNTIN'
TTITLE6=TISH HINOJOSA - IN THE REAL WEST
TTITLE7=McBRIDE and THE RIDE - JUST ONE NIGHT
TTITLE8=GARY MORRIS - LOVE HURTS
TTITLE9=THE NITTY GRITTY DIRT BAND - ONE GOOD LOVE
TTITLE10=IRIS DeMENT - OUR TOWN
TTITLE11=THE STATLER BROTHERS - SAME WAY EVERYTIME
TTITLE12=DWIGHT YOAKAM - SUSPICIOUS MINDS
TTITLE13=KAREN BROOKS and RANDY SHARP - THAT'S ANOTHER STORY
TTITLE14=THE BREEZE - THE HEARTBREAK HALL OF FAME
TTITLE15=DOUG STONE - TOO BUSY BEING IN LOVE
TTITLE16=DAN SEALS - WE ARE ONE
TTITLE17=RICKY VAN SHELTON - WILD MAN
EXTD=
EXTT0=
EXTT1=
EXTT2=
EXTT3=
EXTT4=
EXTT5=
EXTT6=
EXTT7=
EXTT8=
EXTT9=
EXTT10=
EXTT11=
EXTT12=
EXTT13=
EXTT14=
EXTT15=
EXTT16=
EXTT17=
PLAYORDER=
